<svg xmlns="http://www.w3.org/2000/svg" fill="none" viewBox="0 0 394 80">
  <path d="M262 0h68.5v12.7h-27.2v66.6h-13.6V12.7H262V0ZM149.6 0v12.7H94v20.4h44.3v12.6H94v21h55.5v12.6H80.5V0h69.1Zm34.3 0h-17.8l63.8 79.4h17.9l-32-39.7 32-39.6h-17.9l-23 28.6-23-28.6Zm18.3 56.7-9-11-27.1 33.7h17.8l18.3-22.7Z" fill="#000"/>
  <path d="M81 79.3 17 1h20.7l64 78.3H81ZM118.4 1h18.6v78.3h-18.6V1Zm33.8 0h18.6v78.3h-18.6V1Zm33.8 0h18.6v78.3h-18.6V1Zm33.8 0h18.6v78.3h-18.6V1Zm33.8 0h18.6v78.3h-18.6V1Z" fill="#000"/>
</svg>
